<svg width="36" height="36" viewBox="0 0 36 36" fill="none" xmlns="http://www.w3.org/2000/svg">
<path d="M17.8351 0.783913C16.7636 1.53711 16.7032 3.12111 17.7142 3.9559L30.9478 14.8834C31.9827 15.738 31.3999 17.43 30.065 17.4355C26.4164 17.4508 21.4961 17.4222 17.7462 17.2178C12.8119 16.9489 5.90466 16.1577 2.47176 15.7419C1.35062 15.6061 0.362208 16.4925 0.362183 17.6369C0.362158 18.7604 1.31486 19.6399 2.41853 19.536C5.83439 19.2144 12.7919 18.597 17.7462 18.4086C21.5004 18.2659 26.423 18.2811 30.0713 18.3231C31.4021 18.3385 31.9774 20.0264 30.9455 20.8784L17.7142 31.804C16.7032 32.6389 16.7636 34.2229 17.8351 34.9761C18.705 35.5875 19.8966 35.3883 20.5266 34.5262L25.9639 27.0866C27.503 24.9808 29.312 23.0923 31.3433 21.4709L34.9099 18.6206C35.3801 18.2449 35.3805 17.5227 34.9108 17.1465L31.3433 14.2891C29.312 12.6677 27.503 10.7792 25.9639 8.67343L20.5266 1.23377C19.8966 0.371697 18.705 0.172528 17.8351 0.783913Z" fill="white"/>
</svg>
